<svg width="85" height="17" viewBox="0 0 85 17" fill="none" xmlns="http://www.w3.org/2000/svg">
<path d="M16.0262 0C16.2034 0 16.3565 0.064762 16.4854 0.194286C16.6144 0.32381 16.6788 0.47762 16.6788 0.655714V4.34714C16.6788 4.52524 16.6144 4.67905 16.4854 4.80857C16.3565 4.9381 16.2034 5.00286 16.0262 5.00286H6.52649V6.55714H14.455C14.6322 6.55714 14.7853 6.62191 14.9142 6.75143C15.0432 6.88095 15.1076 7.03476 15.1076 7.21286V10.88C15.1076 11.0581 15.0432 11.2119 14.9142 11.3414C14.7853 11.471 14.6322 11.5357 14.455 11.5357H6.52649V16.3443C6.52649 16.5224 6.46203 16.6762 6.33311 16.8057C6.2042 16.9352 6.05111 17 5.87384 17H0.652649C0.475387 17 0.322296 16.9352 0.193378 16.8057C0.0644595 16.6762 0 16.5224 0 16.3443V0.655714C0 0.47762 0.0644595 0.32381 0.193378 0.194286C0.322296 0.064762 0.475387 0 0.652649 0H16.0262Z" fill="black"/>
<path d="M32.8406 12.2643C33.0178 12.2643 33.1709 12.329 33.2998 12.4586C33.4288 12.5881 33.4932 12.7419 33.4932 12.92V16.3443C33.4932 16.5224 33.4288 16.6762 33.2998 16.8057C33.1709 16.9352 33.0178 17 32.8406 17H17.5637C17.3865 17 17.2334 16.9352 17.1045 16.8057C16.9756 16.6762 16.9111 16.5224 16.9111 16.3443V0.655714C16.9111 0.47762 16.9756 0.32381 17.1045 0.194286C17.2334 0.064762 17.3865 0 17.5637 0H32.5988C32.7761 0 32.9292 0.064762 33.0581 0.194286C33.187 0.32381 33.2515 0.47762 33.2515 0.655714V4.08C33.2515 4.2581 33.187 4.41191 33.0581 4.54143C32.9292 4.67095 32.7761 4.73572 32.5988 4.73572H23.1959V6.26571H31.2694C31.4466 6.26571 31.5997 6.33048 31.7286 6.46C31.8576 6.58952 31.922 6.74333 31.922 6.92143V10.0786C31.922 10.2567 31.8576 10.4105 31.7286 10.54C31.5997 10.6695 31.4466 10.7343 31.2694 10.7343H23.1959V12.2643H32.8406Z" fill="black"/>
<path d="M51.7579 16.2471C51.7902 16.3119 51.8063 16.3848 51.8063 16.4657C51.8063 16.6114 51.7499 16.741 51.6371 16.8543C51.5404 16.9514 51.4195 17 51.2745 17H45.7874C45.5618 17 45.3523 16.9433 45.1589 16.83C44.9817 16.7167 44.8528 16.571 44.7722 16.3929L42.645 11.5843H40.6146V16.3443C40.6146 16.5224 40.5501 16.6762 40.4212 16.8057C40.2923 16.9352 40.1392 17 39.9619 17H34.7407C34.5635 17 34.4104 16.9352 34.2815 16.8057C34.1525 16.6762 34.0881 16.5224 34.0881 16.3443V0.655714C34.0881 0.47762 34.1525 0.32381 34.2815 0.194286C34.4104 0.064762 34.5635 0 34.7407 0H44.1437C45.594 0 46.859 0.234762 47.9387 0.704287C49.0345 1.17381 49.8725 1.85381 50.4527 2.74429C51.0328 3.63476 51.3228 4.67905 51.3228 5.87714C51.3228 8.07905 50.4768 9.67381 48.7848 10.6614L51.7579 16.2471ZM43.6361 7.09143C43.9906 7.09143 44.2646 6.9781 44.4579 6.75143C44.6513 6.50857 44.748 6.20905 44.748 5.85286C44.748 5.49667 44.6513 5.18905 44.4579 4.93C44.2807 4.65476 44.0067 4.51714 43.6361 4.51714H40.6146V7.09143H43.6361Z" fill="black"/>
<path d="M55.8336 16.1743C55.6241 16.7248 55.2615 17 54.7459 17H50.1773C50.0323 17 49.9034 16.9514 49.7906 16.8543C49.6939 16.741 49.6455 16.6114 49.6455 16.4657L49.6697 16.32L54.9392 0.801428C55.0037 0.590953 55.1246 0.404762 55.3018 0.242857C55.4791 0.0809523 55.7208 0 56.027 0H62.7469C63.053 0 63.2948 0.0809523 63.472 0.242857C63.6493 0.404762 63.7701 0.590953 63.8346 0.801428L69.1041 16.32L69.1283 16.4657C69.1283 16.6114 69.0719 16.741 68.9591 16.8543C68.8624 16.9514 68.7416 17 68.5965 17H64.028C63.5123 17 63.1497 16.7248 62.9402 16.1743L62.3359 14.4743H56.4379L55.8336 16.1743ZM59.3869 4.68714L57.6707 9.73857H61.1031L59.3869 4.68714Z" fill="black"/>
<path d="M84.3474 12.0214C84.5246 12.0214 84.6777 12.0862 84.8066 12.2157C84.9355 12.3452 85 12.499 85 12.6771V16.3443C85 16.5224 84.9355 16.6762 84.8066 16.8057C84.6777 16.9352 84.5246 17 84.3474 17H70.2308C70.0535 17 69.9004 16.9352 69.7715 16.8057C69.6426 16.6762 69.5781 16.5224 69.5781 16.3443V0.655714C69.5781 0.47762 69.6426 0.32381 69.7715 0.194286C69.9004 0.064762 70.0535 0 70.2308 0H75.452C75.6292 0 75.7823 0.064762 75.9113 0.194286C76.0402 0.32381 76.1046 0.47762 76.1046 0.655714V12.0214H84.3474Z" fill="black"/>
</svg>
