<svg width="73" height="22" viewBox="0 0 73 22" fill="none" xmlns="http://www.w3.org/2000/svg">
<path fill-rule="evenodd" clip-rule="evenodd" d="M13.8594 2.95995V0.199951H1.83545V17H4.93145V9.96795H12.6354V7.23195H4.93145V2.95995H13.8594ZM27.2451 2.95995V0.199951H15.2211V17H27.2451V14.24H18.3171V9.96795H26.0211V7.23195H18.3171V2.95995H27.2451ZM38.6147 11.12L41.9747 17H38.5667L35.7587 11.792C35.5667 11.816 35.3507 11.816 35.1347 11.816H31.7267V17H28.6067V0.199951H35.1347C39.2147 0.199951 41.7587 2.43195 41.7587 6.00795C41.7587 8.40795 40.6067 10.208 38.6147 11.12ZM35.1347 2.88795H31.7267V9.12795H35.1347C37.1987 9.12795 38.4227 8.09595 38.4227 6.00795C38.4227 3.91995 37.1987 2.88795 35.1347 2.88795ZM54.9037 17.024H58.3357L51.9997 0.199951H48.4717L42.1357 17.024H45.5677L47.1277 12.68H53.3437L54.9037 17.024ZM48.0397 10.112L50.2477 3.96795L52.4317 10.112H48.0397ZM62.8177 0.199951V14.312H70.5217V17H59.7217V0.199951H62.8177ZM1 18C0.447715 18 0 18.4477 0 19C0 19.5523 0.447715 20 1 20C8.45634 20 15.8819 20.3318 23.341 20.6651L23.3412 20.6652L23.3527 20.6657C30.8085 20.9988 38.2976 21.3333 45.8401 21.3333C50.2334 21.3333 54.5655 21.4992 58.9101 21.6659L58.9472 21.6674C63.2734 21.8334 67.6125 22 72 22C72.5523 22 73 21.5523 73 21C73 20.4477 72.5523 20 72 20C67.6509 20 63.3441 19.8347 59.0056 19.6681L59.0055 19.6681L58.9868 19.6674C54.648 19.5008 50.278 19.3333 45.8401 19.3333C38.3496 19.3333 30.9049 19.0012 23.442 18.6677L23.4085 18.6662C15.964 18.3335 8.50109 18 1 18Z" fill="black"/>
</svg>
